<?xml version="1.0" encoding="utf-8" standalone="no"?>
<!DOCTYPE svg PUBLIC "-//W3C//DTD SVG 1.1//EN"
  "http://www.w3.org/Graphics/SVG/1.1/DTD/svg11.dtd">
<!-- Created with matplotlib (https://matplotlib.org/) -->
<svg height="345.6pt" version="1.1" viewBox="0 0 460.8 345.6" width="460.8pt" xmlns="http://www.w3.org/2000/svg" xmlns:xlink="http://www.w3.org/1999/xlink">
 <defs>
  <style type="text/css">
*{stroke-linecap:butt;stroke-linejoin:round;}
  </style>
 </defs>
 <g id="figure_1">
  <g id="patch_1">
   <path d="M 0 345.6 
L 460.8 345.6 
L 460.8 0 
L 0 0 
z
" style="fill:#ffffff;"/>
  </g>
  <g id="axes_1">
   <g id="patch_2">
    <path d="M 57.6 307.584 
L 414.72 307.584 
L 414.72 41.472 
L 57.6 41.472 
z
" style="fill:#ffffff;"/>
   </g>
   <g id="PathCollection_1">
    <defs>
     <path d="M 0 0.223607 
C 0.059301 0.223607 0.116182 0.200046 0.158114 0.158114 
C 0.200046 0.116182 0.223607 0.059301 0.223607 0 
C 0.223607 -0.059301 0.200046 -0.116182 0.158114 -0.158114 
C 0.116182 -0.200046 0.059301 -0.223607 0 -0.223607 
C -0.059301 -0.223607 -0.116182 -0.200046 -0.158114 -0.158114 
C -0.200046 -0.116182 -0.223607 -0.059301 -0.223607 0 
C -0.223607 0.059301 -0.200046 0.116182 -0.158114 0.158114 
C -0.116182 0.200046 -0.059301 0.223607 0 0.223607 
z
" id="mf3114c628b" style="stroke:#1f77b4;"/>
    </defs>
    <g clip-path="url(#p31f897f23b)">
     <use style="fill:#1f77b4;stroke:#1f77b4;" x="73.83505" xlink:href="#mf3114c628b" y="84.131783"/>
     <use style="fill:#1f77b4;stroke:#1f77b4;" x="78.988223" xlink:href="#mf3114c628b" y="150.435616"/>
     <use style="fill:#1f77b4;stroke:#1f77b4;" x="84.141396" xlink:href="#mf3114c628b" y="175.627849"/>
     <use style="fill:#1f77b4;stroke:#1f77b4;" x="89.294569" xlink:href="#mf3114c628b" y="166.680514"/>
     <use style="fill:#1f77b4;stroke:#1f77b4;" x="94.447742" xlink:href="#mf3114c628b" y="207.909052"/>
     <use style="fill:#1f77b4;stroke:#1f77b4;" x="99.600915" xlink:href="#mf3114c628b" y="105.047878"/>
     <use style="fill:#1f77b4;stroke:#1f77b4;" x="104.754088" xlink:href="#mf3114c628b" y="209.511418"/>
     <use style="fill:#1f77b4;stroke:#1f77b4;" x="109.907261" xlink:href="#mf3114c628b" y="146.23533"/>
     <use style="fill:#1f77b4;stroke:#1f77b4;" x="115.060434" xlink:href="#mf3114c628b" y="198.468681"/>
     <use style="fill:#1f77b4;stroke:#1f77b4;" x="120.213607" xlink:href="#mf3114c628b" y="230.222082"/>
     <use style="fill:#1f77b4;stroke:#1f77b4;" x="125.36678" xlink:href="#mf3114c628b" y="237.8831"/>
     <use style="fill:#1f77b4;stroke:#1f77b4;" x="130.519953" xlink:href="#mf3114c628b" y="54.069241"/>
     <use style="fill:#1f77b4;stroke:#1f77b4;" x="135.673126" xlink:href="#mf3114c628b" y="294.986759"/>
     <use style="fill:#1f77b4;stroke:#1f77b4;" x="140.826299" xlink:href="#mf3114c628b" y="159.171199"/>
     <use style="fill:#1f77b4;stroke:#1f77b4;" x="145.979472" xlink:href="#mf3114c628b" y="137.667253"/>
     <use style="fill:#1f77b4;stroke:#1f77b4;" x="151.132645" xlink:href="#mf3114c628b" y="247.051669"/>
     <use style="fill:#1f77b4;stroke:#1f77b4;" x="156.285818" xlink:href="#mf3114c628b" y="97.857773"/>
     <use style="fill:#1f77b4;stroke:#1f77b4;" x="161.438991" xlink:href="#mf3114c628b" y="142.550204"/>
     <use style="fill:#1f77b4;stroke:#1f77b4;" x="166.592164" xlink:href="#mf3114c628b" y="293.270615"/>
     <use style="fill:#1f77b4;stroke:#1f77b4;" x="171.745337" xlink:href="#mf3114c628b" y="202.179091"/>
     <use style="fill:#1f77b4;stroke:#1f77b4;" x="176.89851" xlink:href="#mf3114c628b" y="230.228403"/>
     <use style="fill:#1f77b4;stroke:#1f77b4;" x="182.051683" xlink:href="#mf3114c628b" y="220.535193"/>
     <use style="fill:#1f77b4;stroke:#1f77b4;" x="187.204856" xlink:href="#mf3114c628b" y="191.477686"/>
     <use style="fill:#1f77b4;stroke:#1f77b4;" x="192.358029" xlink:href="#mf3114c628b" y="149.699223"/>
     <use style="fill:#1f77b4;stroke:#1f77b4;" x="197.511202" xlink:href="#mf3114c628b" y="242.393113"/>
     <use style="fill:#1f77b4;stroke:#1f77b4;" x="202.664375" xlink:href="#mf3114c628b" y="64.027932"/>
     <use style="fill:#1f77b4;stroke:#1f77b4;" x="207.817548" xlink:href="#mf3114c628b" y="164.044668"/>
     <use style="fill:#1f77b4;stroke:#1f77b4;" x="212.970721" xlink:href="#mf3114c628b" y="207.842682"/>
     <use style="fill:#1f77b4;stroke:#1f77b4;" x="218.123894" xlink:href="#mf3114c628b" y="216.61303"/>
     <use style="fill:#1f77b4;stroke:#1f77b4;" x="223.277067" xlink:href="#mf3114c628b" y="155.482912"/>
     <use style="fill:#1f77b4;stroke:#1f77b4;" x="228.43024" xlink:href="#mf3114c628b" y="228.84411"/>
     <use style="fill:#1f77b4;stroke:#1f77b4;" x="233.583413" xlink:href="#mf3114c628b" y="219.144579"/>
     <use style="fill:#1f77b4;stroke:#1f77b4;" x="238.736587" xlink:href="#mf3114c628b" y="77.068097"/>
     <use style="fill:#1f77b4;stroke:#1f77b4;" x="243.88976" xlink:href="#mf3114c628b" y="94.093634"/>
     <use style="fill:#1f77b4;stroke:#1f77b4;" x="249.042933" xlink:href="#mf3114c628b" y="124.3142"/>
     <use style="fill:#1f77b4;stroke:#1f77b4;" x="254.196106" xlink:href="#mf3114c628b" y="202.618398"/>
     <use style="fill:#1f77b4;stroke:#1f77b4;" x="259.349279" xlink:href="#mf3114c628b" y="115.117186"/>
     <use style="fill:#1f77b4;stroke:#1f77b4;" x="264.502452" xlink:href="#mf3114c628b" y="136.273479"/>
     <use style="fill:#1f77b4;stroke:#1f77b4;" x="269.655625" xlink:href="#mf3114c628b" y="180.694108"/>
     <use style="fill:#1f77b4;stroke:#1f77b4;" x="274.808798" xlink:href="#mf3114c628b" y="184.246494"/>
     <use style="fill:#1f77b4;stroke:#1f77b4;" x="279.961971" xlink:href="#mf3114c628b" y="220.443539"/>
     <use style="fill:#1f77b4;stroke:#1f77b4;" x="285.115144" xlink:href="#mf3114c628b" y="171.721489"/>
     <use style="fill:#1f77b4;stroke:#1f77b4;" x="290.268317" xlink:href="#mf3114c628b" y="159.932876"/>
     <use style="fill:#1f77b4;stroke:#1f77b4;" x="295.42149" xlink:href="#mf3114c628b" y="185.264171"/>
     <use style="fill:#1f77b4;stroke:#1f77b4;" x="300.574663" xlink:href="#mf3114c628b" y="213.714864"/>
     <use style="fill:#1f77b4;stroke:#1f77b4;" x="305.727836" xlink:href="#mf3114c628b" y="223.929555"/>
     <use style="fill:#1f77b4;stroke:#1f77b4;" x="310.881009" xlink:href="#mf3114c628b" y="120.319346"/>
     <use style="fill:#1f77b4;stroke:#1f77b4;" x="316.034182" xlink:href="#mf3114c628b" y="158.583349"/>
     <use style="fill:#1f77b4;stroke:#1f77b4;" x="321.187355" xlink:href="#mf3114c628b" y="167.824609"/>
     <use style="fill:#1f77b4;stroke:#1f77b4;" x="326.340528" xlink:href="#mf3114c628b" y="133.403758"/>
     <use style="fill:#1f77b4;stroke:#1f77b4;" x="331.493701" xlink:href="#mf3114c628b" y="191.430278"/>
     <use style="fill:#1f77b4;stroke:#1f77b4;" x="336.646874" xlink:href="#mf3114c628b" y="240.42097"/>
     <use style="fill:#1f77b4;stroke:#1f77b4;" x="341.800047" xlink:href="#mf3114c628b" y="294.206119"/>
     <use style="fill:#1f77b4;stroke:#1f77b4;" x="346.95322" xlink:href="#mf3114c628b" y="165.008617"/>
     <use style="fill:#1f77b4;stroke:#1f77b4;" x="352.106393" xlink:href="#mf3114c628b" y="266.738336"/>
     <use style="fill:#1f77b4;stroke:#1f77b4;" x="357.259566" xlink:href="#mf3114c628b" y="170.972453"/>
     <use style="fill:#1f77b4;stroke:#1f77b4;" x="362.412739" xlink:href="#mf3114c628b" y="247.402483"/>
     <use style="fill:#1f77b4;stroke:#1f77b4;" x="367.565912" xlink:href="#mf3114c628b" y="82.854947"/>
     <use style="fill:#1f77b4;stroke:#1f77b4;" x="372.719085" xlink:href="#mf3114c628b" y="94.25798"/>
     <use style="fill:#1f77b4;stroke:#1f77b4;" x="377.872258" xlink:href="#mf3114c628b" y="230.572896"/>
     <use style="fill:#1f77b4;stroke:#1f77b4;" x="383.025431" xlink:href="#mf3114c628b" y="164.490297"/>
     <use style="fill:#1f77b4;stroke:#1f77b4;" x="388.178604" xlink:href="#mf3114c628b" y="233.126569"/>
     <use style="fill:#1f77b4;stroke:#1f77b4;" x="393.331777" xlink:href="#mf3114c628b" y="240.202897"/>
     <use style="fill:#1f77b4;stroke:#1f77b4;" x="398.48495" xlink:href="#mf3114c628b" y="175.021036"/>
    </g>
   </g>
   <g id="matplotlib.axis_1">
    <g id="xtick_1">
     <g id="line2d_1">
      <defs>
       <path d="M 0 0 
L 0 3.5 
" id="m557e2a855a" style="stroke:#000000;stroke-width:0.8;"/>
      </defs>
      <g>
       <use style="stroke:#000000;stroke-width:0.8;" x="73.83505" xlink:href="#m557e2a855a" y="307.584"/>
      </g>
     </g>
     <g id="text_1">
      <!-- 0 -->
      <defs>
       <path d="M 31.78125 66.40625 
Q 24.171875 66.40625 20.328125 58.90625 
Q 16.5 51.421875 16.5 36.375 
Q 16.5 21.390625 20.328125 13.890625 
Q 24.171875 6.390625 31.78125 6.390625 
Q 39.453125 6.390625 43.28125 13.890625 
Q 47.125 21.390625 47.125 36.375 
Q 47.125 51.421875 43.28125 58.90625 
Q 39.453125 66.40625 31.78125 66.40625 
z
M 31.78125 74.21875 
Q 44.046875 74.21875 50.515625 64.515625 
Q 56.984375 54.828125 56.984375 36.375 
Q 56.984375 17.96875 50.515625 8.265625 
Q 44.046875 -1.421875 31.78125 -1.421875 
Q 19.53125 -1.421875 13.0625 8.265625 
Q 6.59375 17.96875 6.59375 36.375 
Q 6.59375 54.828125 13.0625 64.515625 
Q 19.53125 74.21875 31.78125 74.21875 
z
" id="DejaVuSans-48"/>
      </defs>
      <g transform="translate(70.6538 322.182437)scale(0.1 -0.1)">
       <use xlink:href="#DejaVuSans-48"/>
      </g>
     </g>
    </g>
    <g id="xtick_2">
     <g id="line2d_2">
      <g>
       <use style="stroke:#000000;stroke-width:0.8;" x="125.36678" xlink:href="#m557e2a855a" y="307.584"/>
      </g>
     </g>
     <g id="text_2">
      <!-- 10 -->
      <defs>
       <path d="M 12.40625 8.296875 
L 28.515625 8.296875 
L 28.515625 63.921875 
L 10.984375 60.40625 
L 10.984375 69.390625 
L 28.421875 72.90625 
L 38.28125 72.90625 
L 38.28125 8.296875 
L 54.390625 8.296875 
L 54.390625 0 
L 12.40625 0 
z
" id="DejaVuSans-49"/>
      </defs>
      <g transform="translate(119.00428 322.182437)scale(0.1 -0.1)">
       <use xlink:href="#DejaVuSans-49"/>
       <use x="63.623047" xlink:href="#DejaVuSans-48"/>
      </g>
     </g>
    </g>
    <g id="xtick_3">
     <g id="line2d_3">
      <g>
       <use style="stroke:#000000;stroke-width:0.8;" x="176.89851" xlink:href="#m557e2a855a" y="307.584"/>
      </g>
     </g>
     <g id="text_3">
      <!-- 20 -->
      <defs>
       <path d="M 19.1875 8.296875 
L 53.609375 8.296875 
L 53.609375 0 
L 7.328125 0 
L 7.328125 8.296875 
Q 12.9375 14.109375 22.625 23.890625 
Q 32.328125 33.6875 34.8125 36.53125 
Q 39.546875 41.84375 41.421875 45.53125 
Q 43.3125 49.21875 43.3125 52.78125 
Q 43.3125 58.59375 39.234375 62.25 
Q 35.15625 65.921875 28.609375 65.921875 
Q 23.96875 65.921875 18.8125 64.3125 
Q 13.671875 62.703125 7.8125 59.421875 
L 7.8125 69.390625 
Q 13.765625 71.78125 18.9375 73 
Q 24.125 74.21875 28.421875 74.21875 
Q 39.75 74.21875 46.484375 68.546875 
Q 53.21875 62.890625 53.21875 53.421875 
Q 53.21875 48.921875 51.53125 44.890625 
Q 49.859375 40.875 45.40625 35.40625 
Q 44.1875 33.984375 37.640625 27.21875 
Q 31.109375 20.453125 19.1875 8.296875 
z
" id="DejaVuSans-50"/>
      </defs>
      <g transform="translate(170.53601 322.182437)scale(0.1 -0.1)">
       <use xlink:href="#DejaVuSans-50"/>
       <use x="63.623047" xlink:href="#DejaVuSans-48"/>
      </g>
     </g>
    </g>
    <g id="xtick_4">
     <g id="line2d_4">
      <g>
       <use style="stroke:#000000;stroke-width:0.8;" x="228.43024" xlink:href="#m557e2a855a" y="307.584"/>
      </g>
     </g>
     <g id="text_4">
      <!-- 30 -->
      <defs>
       <path d="M 40.578125 39.3125 
Q 47.65625 37.796875 51.625 33 
Q 55.609375 28.21875 55.609375 21.1875 
Q 55.609375 10.40625 48.1875 4.484375 
Q 40.765625 -1.421875 27.09375 -1.421875 
Q 22.515625 -1.421875 17.65625 -0.515625 
Q 12.796875 0.390625 7.625 2.203125 
L 7.625 11.71875 
Q 11.71875 9.328125 16.59375 8.109375 
Q 21.484375 6.890625 26.8125 6.890625 
Q 36.078125 6.890625 40.9375 10.546875 
Q 45.796875 14.203125 45.796875 21.1875 
Q 45.796875 27.640625 41.28125 31.265625 
Q 36.765625 34.90625 28.71875 34.90625 
L 20.21875 34.90625 
L 20.21875 43.015625 
L 29.109375 43.015625 
Q 36.375 43.015625 40.234375 45.921875 
Q 44.09375 48.828125 44.09375 54.296875 
Q 44.09375 59.90625 40.109375 62.90625 
Q 36.140625 65.921875 28.71875 65.921875 
Q 24.65625 65.921875 20.015625 65.03125 
Q 15.375 64.15625 9.8125 62.3125 
L 9.8125 71.09375 
Q 15.4375 72.65625 20.34375 73.4375 
Q 25.25 74.21875 29.59375 74.21875 
Q 40.828125 74.21875 47.359375 69.109375 
Q 53.90625 64.015625 53.90625 55.328125 
Q 53.90625 49.265625 50.4375 45.09375 
Q 46.96875 40.921875 40.578125 39.3125 
z
" id="DejaVuSans-51"/>
      </defs>
      <g transform="translate(222.06774 322.182437)scale(0.1 -0.1)">
       <use xlink:href="#DejaVuSans-51"/>
       <use x="63.623047" xlink:href="#DejaVuSans-48"/>
      </g>
     </g>
    </g>
    <g id="xtick_5">
     <g id="line2d_5">
      <g>
       <use style="stroke:#000000;stroke-width:0.8;" x="279.961971" xlink:href="#m557e2a855a" y="307.584"/>
      </g>
     </g>
     <g id="text_5">
      <!-- 40 -->
      <defs>
       <path d="M 37.796875 64.3125 
L 12.890625 25.390625 
L 37.796875 25.390625 
z
M 35.203125 72.90625 
L 47.609375 72.90625 
L 47.609375 25.390625 
L 58.015625 25.390625 
L 58.015625 17.1875 
L 47.609375 17.1875 
L 47.609375 0 
L 37.796875 0 
L 37.796875 17.1875 
L 4.890625 17.1875 
L 4.890625 26.703125 
z
" id="DejaVuSans-52"/>
      </defs>
      <g transform="translate(273.599471 322.182437)scale(0.1 -0.1)">
       <use xlink:href="#DejaVuSans-52"/>
       <use x="63.623047" xlink:href="#DejaVuSans-48"/>
      </g>
     </g>
    </g>
    <g id="xtick_6">
     <g id="line2d_6">
      <g>
       <use style="stroke:#000000;stroke-width:0.8;" x="331.493701" xlink:href="#m557e2a855a" y="307.584"/>
      </g>
     </g>
     <g id="text_6">
      <!-- 50 -->
      <defs>
       <path d="M 10.796875 72.90625 
L 49.515625 72.90625 
L 49.515625 64.59375 
L 19.828125 64.59375 
L 19.828125 46.734375 
Q 21.96875 47.46875 24.109375 47.828125 
Q 26.265625 48.1875 28.421875 48.1875 
Q 40.625 48.1875 47.75 41.5 
Q 54.890625 34.8125 54.890625 23.390625 
Q 54.890625 11.625 47.5625 5.09375 
Q 40.234375 -1.421875 26.90625 -1.421875 
Q 22.3125 -1.421875 17.546875 -0.640625 
Q 12.796875 0.140625 7.71875 1.703125 
L 7.71875 11.625 
Q 12.109375 9.234375 16.796875 8.0625 
Q 21.484375 6.890625 26.703125 6.890625 
Q 35.15625 6.890625 40.078125 11.328125 
Q 45.015625 15.765625 45.015625 23.390625 
Q 45.015625 31 40.078125 35.4375 
Q 35.15625 39.890625 26.703125 39.890625 
Q 22.75 39.890625 18.8125 39.015625 
Q 14.890625 38.140625 10.796875 36.28125 
z
" id="DejaVuSans-53"/>
      </defs>
      <g transform="translate(325.131201 322.182437)scale(0.1 -0.1)">
       <use xlink:href="#DejaVuSans-53"/>
       <use x="63.623047" xlink:href="#DejaVuSans-48"/>
      </g>
     </g>
    </g>
    <g id="xtick_7">
     <g id="line2d_7">
      <g>
       <use style="stroke:#000000;stroke-width:0.8;" x="383.025431" xlink:href="#m557e2a855a" y="307.584"/>
      </g>
     </g>
     <g id="text_7">
      <!-- 60 -->
      <defs>
       <path d="M 33.015625 40.375 
Q 26.375 40.375 22.484375 35.828125 
Q 18.609375 31.296875 18.609375 23.390625 
Q 18.609375 15.53125 22.484375 10.953125 
Q 26.375 6.390625 33.015625 6.390625 
Q 39.65625 6.390625 43.53125 10.953125 
Q 47.40625 15.53125 47.40625 23.390625 
Q 47.40625 31.296875 43.53125 35.828125 
Q 39.65625 40.375 33.015625 40.375 
z
M 52.59375 71.296875 
L 52.59375 62.3125 
Q 48.875 64.0625 45.09375 64.984375 
Q 41.3125 65.921875 37.59375 65.921875 
Q 27.828125 65.921875 22.671875 59.328125 
Q 17.53125 52.734375 16.796875 39.40625 
Q 19.671875 43.65625 24.015625 45.921875 
Q 28.375 48.1875 33.59375 48.1875 
Q 44.578125 48.1875 50.953125 41.515625 
Q 57.328125 34.859375 57.328125 23.390625 
Q 57.328125 12.15625 50.6875 5.359375 
Q 44.046875 -1.421875 33.015625 -1.421875 
Q 20.359375 -1.421875 13.671875 8.265625 
Q 6.984375 17.96875 6.984375 36.375 
Q 6.984375 53.65625 15.1875 63.9375 
Q 23.390625 74.21875 37.203125 74.21875 
Q 40.921875 74.21875 44.703125 73.484375 
Q 48.484375 72.75 52.59375 71.296875 
z
" id="DejaVuSans-54"/>
      </defs>
      <g transform="translate(376.662931 322.182437)scale(0.1 -0.1)">
       <use xlink:href="#DejaVuSans-54"/>
       <use x="63.623047" xlink:href="#DejaVuSans-48"/>
      </g>
     </g>
    </g>
   </g>
   <g id="matplotlib.axis_2">
    <g id="ytick_1">
     <g id="line2d_8">
      <defs>
       <path d="M 0 0 
L -3.5 0 
" id="mc7221666ce" style="stroke:#000000;stroke-width:0.8;"/>
      </defs>
      <g>
       <use style="stroke:#000000;stroke-width:0.8;" x="57.6" xlink:href="#mc7221666ce" y="302.908833"/>
      </g>
     </g>
     <g id="text_8">
      <!-- 7.35 -->
      <defs>
       <path d="M 8.203125 72.90625 
L 55.078125 72.90625 
L 55.078125 68.703125 
L 28.609375 0 
L 18.3125 0 
L 43.21875 64.59375 
L 8.203125 64.59375 
z
" id="DejaVuSans-55"/>
       <path d="M 10.6875 12.40625 
L 21 12.40625 
L 21 0 
L 10.6875 0 
z
" id="DejaVuSans-46"/>
      </defs>
      <g transform="translate(28.334375 306.708051)scale(0.1 -0.1)">
       <use xlink:href="#DejaVuSans-55"/>
       <use x="63.623047" xlink:href="#DejaVuSans-46"/>
       <use x="95.410156" xlink:href="#DejaVuSans-51"/>
       <use x="159.033203" xlink:href="#DejaVuSans-53"/>
      </g>
     </g>
    </g>
    <g id="ytick_2">
     <g id="line2d_9">
      <g>
       <use style="stroke:#000000;stroke-width:0.8;" x="57.6" xlink:href="#mc7221666ce" y="261.483712"/>
      </g>
     </g>
     <g id="text_9">
      <!-- 7.40 -->
      <g transform="translate(28.334375 265.282931)scale(0.1 -0.1)">
       <use xlink:href="#DejaVuSans-55"/>
       <use x="63.623047" xlink:href="#DejaVuSans-46"/>
       <use x="95.410156" xlink:href="#DejaVuSans-52"/>
       <use x="159.033203" xlink:href="#DejaVuSans-48"/>
      </g>
     </g>
    </g>
    <g id="ytick_3">
     <g id="line2d_10">
      <g>
       <use style="stroke:#000000;stroke-width:0.8;" x="57.6" xlink:href="#mc7221666ce" y="220.058592"/>
      </g>
     </g>
     <g id="text_10">
      <!-- 7.45 -->
      <g transform="translate(28.334375 223.85781)scale(0.1 -0.1)">
       <use xlink:href="#DejaVuSans-55"/>
       <use x="63.623047" xlink:href="#DejaVuSans-46"/>
       <use x="95.410156" xlink:href="#DejaVuSans-52"/>
       <use x="159.033203" xlink:href="#DejaVuSans-53"/>
      </g>
     </g>
    </g>
    <g id="ytick_4">
     <g id="line2d_11">
      <g>
       <use style="stroke:#000000;stroke-width:0.8;" x="57.6" xlink:href="#mc7221666ce" y="178.633471"/>
      </g>
     </g>
     <g id="text_11">
      <!-- 7.50 -->
      <g transform="translate(28.334375 182.43269)scale(0.1 -0.1)">
       <use xlink:href="#DejaVuSans-55"/>
       <use x="63.623047" xlink:href="#DejaVuSans-46"/>
       <use x="95.410156" xlink:href="#DejaVuSans-53"/>
       <use x="159.033203" xlink:href="#DejaVuSans-48"/>
      </g>
     </g>
    </g>
    <g id="ytick_5">
     <g id="line2d_12">
      <g>
       <use style="stroke:#000000;stroke-width:0.8;" x="57.6" xlink:href="#mc7221666ce" y="137.208351"/>
      </g>
     </g>
     <g id="text_12">
      <!-- 7.55 -->
      <g transform="translate(28.334375 141.007569)scale(0.1 -0.1)">
       <use xlink:href="#DejaVuSans-55"/>
       <use x="63.623047" xlink:href="#DejaVuSans-46"/>
       <use x="95.410156" xlink:href="#DejaVuSans-53"/>
       <use x="159.033203" xlink:href="#DejaVuSans-53"/>
      </g>
     </g>
    </g>
    <g id="ytick_6">
     <g id="line2d_13">
      <g>
       <use style="stroke:#000000;stroke-width:0.8;" x="57.6" xlink:href="#mc7221666ce" y="95.78323"/>
      </g>
     </g>
     <g id="text_13">
      <!-- 7.60 -->
      <g transform="translate(28.334375 99.582449)scale(0.1 -0.1)">
       <use xlink:href="#DejaVuSans-55"/>
       <use x="63.623047" xlink:href="#DejaVuSans-46"/>
       <use x="95.410156" xlink:href="#DejaVuSans-54"/>
       <use x="159.033203" xlink:href="#DejaVuSans-48"/>
      </g>
     </g>
    </g>
    <g id="ytick_7">
     <g id="line2d_14">
      <g>
       <use style="stroke:#000000;stroke-width:0.8;" x="57.6" xlink:href="#mc7221666ce" y="54.35811"/>
      </g>
     </g>
     <g id="text_14">
      <!-- 7.65 -->
      <g transform="translate(28.334375 58.157328)scale(0.1 -0.1)">
       <use xlink:href="#DejaVuSans-55"/>
       <use x="63.623047" xlink:href="#DejaVuSans-46"/>
       <use x="95.410156" xlink:href="#DejaVuSans-54"/>
       <use x="159.033203" xlink:href="#DejaVuSans-53"/>
      </g>
     </g>
    </g>
   </g>
   <g id="patch_3">
    <path d="M 57.6 307.584 
L 57.6 41.472 
" style="fill:none;stroke:#000000;stroke-linecap:square;stroke-linejoin:miter;stroke-width:0.8;"/>
   </g>
   <g id="patch_4">
    <path d="M 414.72 307.584 
L 414.72 41.472 
" style="fill:none;stroke:#000000;stroke-linecap:square;stroke-linejoin:miter;stroke-width:0.8;"/>
   </g>
   <g id="patch_5">
    <path d="M 57.6 307.584 
L 414.72 307.584 
" style="fill:none;stroke:#000000;stroke-linecap:square;stroke-linejoin:miter;stroke-width:0.8;"/>
   </g>
   <g id="patch_6">
    <path d="M 57.6 41.472 
L 414.72 41.472 
" style="fill:none;stroke:#000000;stroke-linecap:square;stroke-linejoin:miter;stroke-width:0.8;"/>
   </g>
  </g>
 </g>
 <defs>
  <clipPath id="p31f897f23b">
   <rect height="266.112" width="357.12" x="57.6" y="41.472"/>
  </clipPath>
 </defs>
</svg>
